<?xml version="1.0" encoding="utf-8"?>
<!-- Generator: Adobe Illustrator 16.0.0, SVG Export Plug-In . SVG Version: 6.00 Build 0)  -->
<!DOCTYPE svg PUBLIC "-//W3C//DTD SVG 1.1//EN" "http://www.w3.org/Graphics/SVG/1.1/DTD/svg11.dtd">
<svg version="1.1" id="Laag_1" xmlns="http://www.w3.org/2000/svg" xmlns:xlink="http://www.w3.org/1999/xlink" x="0px" y="0px"
	 width="574.471px" height="581.971px" viewBox="193.104 -29.393 574.471 581.971"
	 enable-background="new 193.104 -29.393 574.471 581.971" xml:space="preserve">
<title>Google Plus</title>
<desc>A line styled icon from Orion Icon Library.</desc>
<path fill="none" stroke="#8C8C8C" stroke-width="34" stroke-miterlimit="10" d="M401.696,310.45h82.022
	c-19.105,54.332-78.638,82.89-132.971,63.785c-54.333-19.105-82.89-78.638-63.785-132.971c19.105-54.333,78.638-82.89,132.97-63.785
	c13.118,4.613,25.181,11.802,35.479,21.146c4.347,4.005,11.046,3.982,15.365-0.053l30.126-28.35
	c4.521-4.271,4.724-11.399,0.452-15.919c-0.146-0.155-0.297-0.306-0.452-0.452c-30.316-28.802-70.32-45.207-112.131-45.981
	c-92.765-1.86-169.474,71.833-171.333,164.599c-1.86,92.766,71.833,169.474,164.599,171.334
	c90.411,1.813,166.036-68.266,171.104-158.553c0.131-1.111,0.219-38.553,0.219-38.553H401.696c-6.215,0-11.252,5.038-11.252,11.253
	v41.247C390.444,305.412,395.481,310.45,401.696,310.45L401.696,310.45z"/>
<path fill="none" stroke="#8C8C8C" stroke-width="34" stroke-miterlimit="10" d="M692.336,250.442V210.14
	c0-5.446-4.415-9.861-9.861-9.861H648.56c-5.445,0-9.861,4.415-9.861,9.861v40.302h-40.25c-5.445-0.048-9.899,4.328-9.948,9.773
	c0,0.029,0,0.059,0,0.088v33.915c0.005,5.447,4.423,9.861,9.87,9.861h40.25v40.294c0,5.446,4.415,9.861,9.861,9.861h33.993
	c5.446,0,9.861-4.415,9.861-9.861V304.08h40.303c5.444-0.005,9.856-4.417,9.861-9.861v-33.915c0-5.446-4.415-9.861-9.861-9.861
	H692.336z"/>
</svg>
