<?xml version="1.0" encoding="utf-8"?>
<!-- Generator: Adobe Illustrator 16.0.0, SVG Export Plug-In . SVG Version: 6.00 Build 0)  -->
<!DOCTYPE svg PUBLIC "-//W3C//DTD SVG 1.1//EN" "http://www.w3.org/Graphics/SVG/1.1/DTD/svg11.dtd">
<svg version="1.1" id="Laag_1" xmlns="http://www.w3.org/2000/svg" xmlns:xlink="http://www.w3.org/1999/xlink" x="0px" y="0px"
	 width="960px" height="560px" viewBox="0 0 960 560" enable-background="new 0 0 960 560" xml:space="preserve">
<title>Facebook</title>
<desc>A line styled icon from Orion Icon Library.</desc>
<path display="none" fill="none" stroke="#BCBBBB" stroke-width="2" stroke-linecap="round" stroke-linejoin="round" stroke-miterlimit="10" d="
	M543.979,117.574h67.271V17.5h-79.572c-95.97,4.104-115.658,58.24-117.303,114.844v50.041H348.75V280h65.625v262.5h98.438V280
	h81.209l15.583-97.615h-96.792v-30.354c-1.097-17.915,12.538-33.325,30.452-34.422C543.503,117.595,543.741,117.583,543.979,117.574
	z"/>
<path fill="#BCBBBB" d="M614.355,16.59H346.369c-72.166-0.079-130.731,58.358-130.811,130.524v267.412
	c0.08,72.166,58.646,130.604,130.811,130.524h267.986c72.166,0.079,130.731-58.358,130.813-130.524V147.125c0-0.003,0-0.007,0-0.011
	C745.087,74.949,686.521,16.511,614.355,16.59z M481.071,451.919c-94.497,0.183-171.249-76.272-171.432-170.769
	c-0.183-94.495,76.272-171.247,170.768-171.43c94.536,0.03,171.218,76.563,171.43,171.1
	C651.837,375.188,575.437,451.736,481.071,451.919z M652.259,152.186c-22.697,0.049-41.134-18.311-41.184-41.007
	c-0.05-22.696,18.31-41.135,41.006-41.183c0.03,0,0.06,0,0.089,0c22.665-0.031,41.065,18.319,41.096,40.984c0,0.007,0,0.015,0,0.022
	C693.314,133.699,674.954,152.137,652.259,152.186z"/>
<path fill="#BCBBBB" d="M480.407,385.421c-57.738-0.128-104.441-47.039-104.313-104.775c0.128-57.74,47.038-104.442,104.776-104.314
	c57.648,0.127,104.313,46.896,104.313,104.545C585.117,338.678,538.209,385.483,480.407,385.421z"/>
</svg>
