<?xml version="1.0" encoding="utf-8"?>
<!-- Generator: Adobe Illustrator 16.0.0, SVG Export Plug-In . SVG Version: 6.00 Build 0)  -->
<!DOCTYPE svg PUBLIC "-//W3C//DTD SVG 1.1//EN" "http://www.w3.org/Graphics/SVG/1.1/DTD/svg11.dtd">
<svg version="1.1" id="Laag_1" xmlns="http://www.w3.org/2000/svg" xmlns:xlink="http://www.w3.org/1999/xlink" x="0px" y="0px"
	 width="960px" height="560px" viewBox="0 0 960 560" enable-background="new 0 0 960 560" xml:space="preserve">
<title>Instagram</title>
<desc>A line styled icon from Orion Icon Library.</desc>
<path fill="none" stroke="#BCBBBB" stroke-width="34" stroke-linecap="round" stroke-linejoin="round" stroke-miterlimit="10" d="
	M689.65,385.298c-0.063,57.144-46.438,103.417-103.583,103.354l0,0H373.862c-57.144,0.063-103.52-46.211-103.583-103.354l0,0
	v-211.75c0.063-57.144,46.438-103.417,103.583-103.355l0,0h212.205c57.145-0.063,103.52,46.211,103.583,103.355
	c0,0.003,0,0.006,0,0.009V385.298z"/>
<path fill="none" stroke="#BCBBBB" stroke-width="34" stroke-linecap="round" stroke-linejoin="round" stroke-miterlimit="10" d="
	M480,143.938c-74.826,0.145-135.367,60.921-135.222,135.747s60.921,135.367,135.748,135.223
	c74.724-0.145,135.222-60.761,135.222-135.485C615.579,204.564,554.858,143.961,480,143.938z M480,362.25
	c-45.72-0.102-82.701-37.247-82.6-82.967s37.247-82.701,82.967-82.6c45.648,0.101,82.601,37.135,82.601,82.783
	C562.914,325.236,525.77,362.299,480,362.25z M648.552,144.953c0.038,17.972-14.5,32.572-32.472,32.611
	c-17.972,0.039-32.572-14.499-32.611-32.471c-0.038-17.972,14.499-32.572,32.472-32.611c0.023,0,0.046,0,0.069,0
	c17.948-0.024,32.518,14.506,32.541,32.454C648.552,144.941,648.552,144.947,648.552,144.953z"/>
</svg>
