<?xml version="1.0" encoding="utf-8"?>
<!-- Generator: Adobe Illustrator 16.0.0, SVG Export Plug-In . SVG Version: 6.00 Build 0)  -->
<!DOCTYPE svg PUBLIC "-//W3C//DTD SVG 1.1//EN" "http://www.w3.org/Graphics/SVG/1.1/DTD/svg11.dtd">
<svg version="1.1" id="Laag_1" xmlns="http://www.w3.org/2000/svg" xmlns:xlink="http://www.w3.org/1999/xlink" x="0px" y="0px"
	 width="453.333px" height="452.667px" viewBox="0 0 453.333 452.667" enable-background="new 0 0 453.333 452.667"
	 xml:space="preserve">
<title>Instagram</title>
<desc>A line styled icon from Orion Icon Library.</desc>
<path fill="none" stroke="#B2B2B2" stroke-width="29" stroke-linecap="round" stroke-linejoin="round" stroke-miterlimit="10" d="
	M436.651,333.298c-0.064,57.145-46.439,103.416-103.584,103.354l0,0H120.862c-57.145,0.063-103.52-46.211-103.583-103.354l0,0
	v-211.75C17.342,64.404,63.717,18.131,120.862,18.193l0,0h212.207c57.145-0.063,103.52,46.211,103.582,103.355
	c0,0.003,0,0.006,0,0.009V333.298L436.651,333.298z"/>
<path fill="none" stroke="#B2B2B2" stroke-width="29" stroke-linecap="round" stroke-linejoin="round" stroke-miterlimit="10" d="
	M227,91.938c-74.826,0.145-135.367,60.921-135.223,135.747s60.922,135.367,135.75,135.223
	c74.723-0.146,135.221-60.76,135.221-135.484C362.579,152.564,301.858,91.961,227,91.938z M227,310.25
	c-45.721-0.102-82.701-37.246-82.601-82.967c0.101-45.72,37.249-82.701,82.968-82.6c45.646,0.101,82.6,37.135,82.6,82.783
	C309.915,273.236,272.77,310.298,227,310.25z M395.551,92.953c0.039,17.972-14.5,32.572-32.471,32.611
	c-17.973,0.039-32.572-14.499-32.611-32.471c-0.039-17.972,14.498-32.572,32.473-32.611c0.021,0,0.047,0,0.068,0
	c17.947-0.024,32.52,14.506,32.541,32.454C395.551,92.941,395.551,92.947,395.551,92.953z"/>
</svg>
