<?xml version="1.0" encoding="utf-8"?>
<!-- Generator: Adobe Illustrator 16.0.0, SVG Export Plug-In . SVG Version: 6.00 Build 0)  -->
<!DOCTYPE svg PUBLIC "-//W3C//DTD SVG 1.1//EN" "http://www.w3.org/Graphics/SVG/1.1/DTD/svg11.dtd">
<svg version="1.1" id="Laag_1" xmlns="http://www.w3.org/2000/svg" xmlns:xlink="http://www.w3.org/1999/xlink" x="0px" y="0px"
	 width="530px" height="529px" viewBox="0 0 530 529" enable-background="new 0 0 530 529" xml:space="preserve">
<title>Facebook</title>
<desc>A line styled icon from Orion Icon Library.</desc>
<path display="none" fill="none" stroke="#BCBBBB" stroke-width="2" stroke-linecap="round" stroke-linejoin="round" stroke-miterlimit="10" d="
	M543.98,117.574h67.27V17.5h-79.572c-95.969,4.104-115.657,58.24-117.303,114.844v50.041H348.75V280h65.625v262.5h98.439V280h81.209
	l15.58-97.615h-96.791v-30.354c-1.098-17.915,12.537-33.325,30.451-34.422C543.503,117.595,543.742,117.583,543.98,117.574z"/>
<path fill="#BCBBBB" d="M393.049,12.644H137.338C68.478,12.568,12.595,68.329,12.519,137.189v255.164
	c0.076,68.86,55.96,124.621,124.819,124.544h255.711c68.861,0.075,124.743-55.684,124.821-124.544V137.2c0-0.003,0-0.006,0-0.01
	C517.794,68.33,461.911,12.568,393.049,12.644z M265.904,435.87c-94.498,0.183-171.25-76.271-171.433-170.769
	c-0.183-94.495,76.272-171.249,170.769-171.43c94.535,0.03,171.217,76.563,171.43,171.1
	C436.669,359.139,360.269,435.688,265.904,435.87z M437.091,136.137c-22.697,0.049-41.135-18.311-41.184-41.007
	c-0.051-22.696,18.309-41.135,41.006-41.183c0.029,0,0.059,0,0.088,0c22.666-0.031,41.066,18.319,41.096,40.984
	c0,0.007,0,0.015,0,0.022C478.146,117.65,459.787,136.088,437.091,136.137z"/>
<path fill="#BCBBBB" d="M265.24,369.372c-57.738-0.128-104.441-47.039-104.314-104.774c0.129-57.739,47.039-104.441,104.777-104.313
	c57.646,0.127,104.313,46.896,104.313,104.545C369.949,322.629,323.041,369.435,265.24,369.372z"/>
</svg>
