<?xml version="1.0" encoding="utf-8"?>
<!-- Generator: Adobe Illustrator 16.0.0, SVG Export Plug-In . SVG Version: 6.00 Build 0)  -->
<!DOCTYPE svg PUBLIC "-//W3C//DTD SVG 1.1//EN" "http://www.w3.org/Graphics/SVG/1.1/DTD/svg11.dtd">
<svg version="1.1" id="Laag_1" xmlns="http://www.w3.org/2000/svg" xmlns:xlink="http://www.w3.org/1999/xlink" x="0px" y="0px"
	 width="514px" height="560px" viewBox="219.5 0 514 560" enable-background="new 219.5 0 514 560" xml:space="preserve">
<title>Path</title>
<desc>A line styled icon from Orion Icon Library.</desc>
<path fill="none" stroke="#B2B2B2" stroke-width="34" stroke-linecap="round" stroke-linejoin="round" stroke-miterlimit="10" d="
	M642.68,69.842C593.968,34.949,535.347,16.603,475.433,17.5C415.843,16.498,357.612,35.336,309.9,71.05
	c-46.462,36.356-72.047,85.575-72.047,138.688c0,49.167,7.752,87.185,45.806,131.014c4.441,5.104,12.179,5.641,17.283,1.199
	c0.121-0.105,0.24-0.214,0.357-0.324l37.389-35.464c4.677-4.479,5.061-11.823,0.875-16.765
	c-23.118-27.204-25.813-47.022-25.813-79.66c0-64.164,72.546-116.375,161.709-116.375c43.529-0.91,86.208,12.134,121.791,37.223
	c28.787,21.542,44.625,49.149,44.625,77.744c0,27.414-6.072,64.969-35,88.208c-27.239,21.875-70.718,27.694-122.5,16.406V173.749
	c0-6.731-5.457-12.188-12.188-12.188h-53.988c-6.731,0-12.189,5.457-12.189,12.188v283.876c-0.271,2.054-1.339,3.918-2.975,5.188
	c-1.231,1.076-2.899,1.508-4.498,1.164l-44.879-9.144c-6.59-1.349-13.026,2.901-14.374,9.491c0,0.004-0.001,0.008-0.002,0.011
	l-10.78,52.964c-1.344,6.594,2.91,13.029,9.502,14.376l44.87,9.145c5.471,1.116,11.041,1.68,16.625,1.68
	c18.612-0.024,36.69-6.219,51.406-17.613c19.851-15.326,32.044-38.536,33.398-63.578l0.07-1.059v-70.053
	c15.983,2.728,32.165,4.123,48.379,4.174c43.777,1.441,86.72-12.213,121.625-38.675c41.457-33.303,63.385-84.263,63.385-147.368
	c0-53.086-26.67-102.27-75.075-138.486L642.68,69.842z"/>
</svg>
