<?xml version="1.0" encoding="utf-8"?>
<!-- Generator: Adobe Illustrator 16.0.0, SVG Export Plug-In . SVG Version: 6.00 Build 0)  -->
<!DOCTYPE svg PUBLIC "-//W3C//DTD SVG 1.1//EN" "http://www.w3.org/Graphics/SVG/1.1/DTD/svg11.dtd">
<svg version="1.1" id="Laag_1" xmlns="http://www.w3.org/2000/svg" xmlns:xlink="http://www.w3.org/1999/xlink" x="0px" y="0px"
	 width="578.973px" height="560px" viewBox="193.105 0 578.973 560" enable-background="new 193.105 0 578.973 560"
	 xml:space="preserve">
<rect x="551.922" y="74.424" fill="#FFFFFF" width="22.166" height="30.363"/>
<g id="Laag_2">
	<polygon fill="#FFFFFF" points="472.789,201.6 655.43,201.6 664.081,532.097 466.06,533.078 465.098,456.583 592.946,457.564 
		583.335,291.824 468.943,284.96 	"/>
</g>
<g id="Laag_1_1_">
	<title>Spray Paint</title>
	<desc>A line styled icon from Orion Icon Library.</desc>
	<path fill="none" stroke="#FFFFFF" stroke-width="23" stroke-linecap="round" stroke-linejoin="round" stroke-miterlimit="10" d="
		M296.25,78.75H427.5 M435.375,105l-131.25,35 M304.125,17.5l131.25,35"/>
</g>
<g id="Laag_1_2_">
	<title>Spray Paint</title>
	<desc>A line styled icon from Orion Icon Library.</desc>
	
		<path fill="none" stroke="#FFFFFF" stroke-width="21.6857" stroke-linecap="round" stroke-linejoin="round" stroke-miterlimit="10" d="
		M469.5,289.072H585v165H469.5 M543.75,114.998v-49.5H585v49.5"/>
	
		<path fill="none" stroke="#FFFFFF" stroke-width="21.6857" stroke-linecap="round" stroke-linejoin="round" stroke-miterlimit="10" d="
		M469.5,209.047h189.75v318.368H469.5V209.047z M659.25,209.047c0.094-30.923-15.021-59.917-40.425-77.55v-16.5h-108.9v17.325
		c-25.166,17.466-40.249,46.092-40.425,76.725"/>
</g>
</svg>
