<?xml version="1.0" encoding="utf-8"?>
<!-- Generator: Adobe Illustrator 16.0.0, SVG Export Plug-In . SVG Version: 6.00 Build 0)  -->
<!DOCTYPE svg PUBLIC "-//W3C//DTD SVG 1.1//EN" "http://www.w3.org/Graphics/SVG/1.1/DTD/svg11.dtd">
<svg version="1.1" xmlns="http://www.w3.org/2000/svg" xmlns:xlink="http://www.w3.org/1999/xlink" x="0px" y="0px" width="960px"
	 height="560px" viewBox="0 0 960 560" enable-background="new 0 0 960 560" xml:space="preserve">
<g id="Laag_2">
	<polygon fill="#FFFFFF" points="466.5,203.5 656.5,203.5 665.5,540.5 459.5,541.5 458.5,463.5 591.5,464.5 581.5,295.5 
		462.5,288.5 	"/>
</g>
<g id="Laag_1">
	<title>Spray Paint</title>
	<desc>A line styled icon from Orion Icon Library.</desc>
	<path fill="none" stroke="#FFFFFF" stroke-width="34" stroke-linecap="round" stroke-linejoin="round" stroke-miterlimit="10" d="
		M462.5,289.625H585v175H462.5 M541.25,105V52.5H585V105 M296.25,78.75H427.5 M435.375,105l-131.25,35 M304.125,17.5l131.25,35"/>
	<path fill="none" stroke="#FFFFFF" stroke-width="34" stroke-linecap="round" stroke-linejoin="round" stroke-miterlimit="10" d="
		M462.5,204.75h201.25v337.662H462.5V204.75z M663.75,204.75c0.1-32.798-15.931-63.549-42.875-82.25V105h-115.5v18.375
		c-26.691,18.524-42.688,48.886-42.875,81.375"/>
</g>
</svg>
